<?xml version="1.0" standalone="no"?>
<svg xmlns:xlink="http://www.w3.org/1999/xlink" id="wave" style="transform:rotate(0deg); transition: 0.3s" viewBox="0 0 1440 490" version="1.1" xmlns="http://www.w3.org/2000/svg"><defs><linearGradient id="sw-gradient-0" x1="0" x2="0" y1="1" y2="0"><stop stop-color="rgba(0, 0, 0, 1)" offset="0%"/><stop stop-color="rgba(0, 0, 0, 1)" offset="100%"/></linearGradient></defs><path style="transform:translate(0, 0px); opacity:1" fill="url(#sw-gradient-0)" d="M0,147L60,122.5C120,98,240,49,360,40.8C480,33,600,65,720,98C840,131,960,163,1080,179.7C1200,196,1320,196,1440,171.5C1560,147,1680,98,1800,98C1920,98,2040,147,2160,138.8C2280,131,2400,65,2520,89.8C2640,114,2760,229,2880,261.3C3000,294,3120,245,3240,204.2C3360,163,3480,131,3600,171.5C3720,212,3840,327,3960,318.5C4080,310,4200,180,4320,122.5C4440,65,4560,82,4680,114.3C4800,147,4920,196,5040,196C5160,196,5280,147,5400,155.2C5520,163,5640,229,5760,220.5C5880,212,6000,131,6120,155.2C6240,180,6360,310,6480,310.3C6600,310,6720,180,6840,138.8C6960,98,7080,147,7200,179.7C7320,212,7440,229,7560,261.3C7680,294,7800,343,7920,326.7C8040,310,8160,229,8280,236.8C8400,245,8520,343,8580,392L8640,441L8640,490L8580,490C8520,490,8400,490,8280,490C8160,490,8040,490,7920,490C7800,490,7680,490,7560,490C7440,490,7320,490,7200,490C7080,490,6960,490,6840,490C6720,490,6600,490,6480,490C6360,490,6240,490,6120,490C6000,490,5880,490,5760,490C5640,490,5520,490,5400,490C5280,490,5160,490,5040,490C4920,490,4800,490,4680,490C4560,490,4440,490,4320,490C4200,490,4080,490,3960,490C3840,490,3720,490,3600,490C3480,490,3360,490,3240,490C3120,490,3000,490,2880,490C2760,490,2640,490,2520,490C2400,490,2280,490,2160,490C2040,490,1920,490,1800,490C1680,490,1560,490,1440,490C1320,490,1200,490,1080,490C960,490,840,490,720,490C600,490,480,490,360,490C240,490,120,490,60,490L0,490Z"/></svg>