<?xml version="1.0" standalone="no"?>
<svg xmlns:xlink="http://www.w3.org/1999/xlink" id="wave" style="transform:rotate(0deg); transition: 0.3s" viewBox="0 0 1440 490" version="1.1" xmlns="http://www.w3.org/2000/svg"><defs><linearGradient id="sw-gradient-0" x1="0" x2="0" y1="1" y2="0"><stop stop-color="rgba(0, 0, 0, 1)" offset="0%"/><stop stop-color="rgba(0, 0, 0, 1)" offset="100%"/></linearGradient></defs><path style="transform:translate(0, 0px); opacity:1" fill="url(#sw-gradient-0)" d="M0,49L60,49C120,49,240,49,360,73.5C480,98,600,147,720,171.5C840,196,960,196,1080,171.5C1200,147,1320,98,1440,65.3C1560,33,1680,16,1800,32.7C1920,49,2040,98,2160,171.5C2280,245,2400,343,2520,343C2640,343,2760,245,2880,171.5C3000,98,3120,49,3240,40.8C3360,33,3480,65,3600,122.5C3720,180,3840,261,3960,269.5C4080,278,4200,212,4320,179.7C4440,147,4560,147,4680,187.8C4800,229,4920,310,5040,310.3C5160,310,5280,229,5400,236.8C5520,245,5640,343,5760,367.5C5880,392,6000,343,6120,318.5C6240,294,6360,294,6480,245C6600,196,6720,98,6840,122.5C6960,147,7080,294,7200,343C7320,392,7440,343,7560,302.2C7680,261,7800,229,7920,187.8C8040,147,8160,98,8280,130.7C8400,163,8520,278,8580,334.8L8640,392L8640,490L8580,490C8520,490,8400,490,8280,490C8160,490,8040,490,7920,490C7800,490,7680,490,7560,490C7440,490,7320,490,7200,490C7080,490,6960,490,6840,490C6720,490,6600,490,6480,490C6360,490,6240,490,6120,490C6000,490,5880,490,5760,490C5640,490,5520,490,5400,490C5280,490,5160,490,5040,490C4920,490,4800,490,4680,490C4560,490,4440,490,4320,490C4200,490,4080,490,3960,490C3840,490,3720,490,3600,490C3480,490,3360,490,3240,490C3120,490,3000,490,2880,490C2760,490,2640,490,2520,490C2400,490,2280,490,2160,490C2040,490,1920,490,1800,490C1680,490,1560,490,1440,490C1320,490,1200,490,1080,490C960,490,840,490,720,490C600,490,480,490,360,490C240,490,120,490,60,490L0,490Z"/></svg>