<?xml version="1.0" standalone="no"?>
<svg xmlns:xlink="http://www.w3.org/1999/xlink" id="wave" style="transform:rotate(0deg); transition: 0.3s" viewBox="0 0 1440 490" version="1.1" xmlns="http://www.w3.org/2000/svg"><defs><linearGradient id="sw-gradient-0" x1="0" x2="0" y1="1" y2="0"><stop stop-color="rgba(0, 0, 0, 1)" offset="0%"/><stop stop-color="rgba(0, 0, 0, 1)" offset="100%"/></linearGradient></defs><path style="transform:translate(0, 0px); opacity:1" fill="url(#sw-gradient-0)" d="M0,196L60,179.7C120,163,240,131,360,130.7C480,131,600,163,720,163.3C840,163,960,131,1080,114.3C1200,98,1320,98,1440,130.7C1560,163,1680,229,1800,253.2C1920,278,2040,261,2160,285.8C2280,310,2400,376,2520,351.2C2640,327,2760,212,2880,138.8C3000,65,3120,33,3240,65.3C3360,98,3480,196,3600,212.3C3720,229,3840,163,3960,171.5C4080,180,4200,261,4320,294C4440,327,4560,310,4680,269.5C4800,229,4920,163,5040,130.7C5160,98,5280,98,5400,130.7C5520,163,5640,229,5760,285.8C5880,343,6000,392,6120,343C6240,294,6360,147,6480,114.3C6600,82,6720,163,6840,220.5C6960,278,7080,310,7200,334.8C7320,359,7440,376,7560,326.7C7680,278,7800,163,7920,122.5C8040,82,8160,114,8280,171.5C8400,229,8520,310,8580,351.2L8640,392L8640,490L8580,490C8520,490,8400,490,8280,490C8160,490,8040,490,7920,490C7800,490,7680,490,7560,490C7440,490,7320,490,7200,490C7080,490,6960,490,6840,490C6720,490,6600,490,6480,490C6360,490,6240,490,6120,490C6000,490,5880,490,5760,490C5640,490,5520,490,5400,490C5280,490,5160,490,5040,490C4920,490,4800,490,4680,490C4560,490,4440,490,4320,490C4200,490,4080,490,3960,490C3840,490,3720,490,3600,490C3480,490,3360,490,3240,490C3120,490,3000,490,2880,490C2760,490,2640,490,2520,490C2400,490,2280,490,2160,490C2040,490,1920,490,1800,490C1680,490,1560,490,1440,490C1320,490,1200,490,1080,490C960,490,840,490,720,490C600,490,480,490,360,490C240,490,120,490,60,490L0,490Z"/></svg>